<?xml version="1.0" encoding="utf-8"?>
<!-- Generator: Adobe Illustrator 28.3.0, SVG Export Plug-In . SVG Version: 6.00 Build 0)  -->
<svg width="30px" height="30px" version="1.1" id="Layer_1" xmlns="http://www.w3.org/2000/svg" xmlns:xlink="http://www.w3.org/1999/xlink" x="0px" y="0px"
	 viewBox="0 0 30 30" style="enable-background:new 0 0 30 30;" xml:space="preserve">
<style type="text/css">
	.st0{fill:#FF3333;}
	.st1{fill:#050D42;}
</style>
<g transform="rotate(45, 512, 512)">
	<path class="st0" d="M-190.3,524.7c0.1-0.6,0.6-1,1.1-1c0.5,0,1,0.3,1.1,0.8l2-0.1c0.2,0,0.3,0.1,0.3,0.3s-0.1,0.3-0.3,0.3l-2,0.1
		c-0.1,0.5-0.6,0.8-1.1,0.8c-0.5,0-0.9-0.3-1.1-0.7l-5.1,0.3c-0.2,0-0.3-0.1-0.3-0.3c0-0.2,0.1-0.3,0.3-0.3L-190.3,524.7z
		 M-193.6,513.4c0.1-0.5,0.6-0.8,1.1-0.8s1,0.3,1.1,0.8h5.2c0.2,0,0.3,0.1,0.3,0.3s-0.1,0.3-0.3,0.3h-5.2c-0.1,0.5-0.6,0.8-1.1,0.8
		s-1-0.3-1.1-0.8h-1.5c-0.2,0-0.3-0.1-0.3-0.3s0.1-0.3,0.3-0.3H-193.6z M-189.7,511.4c0.1-0.5,0.6-0.8,1.1-0.8c0.5,0,0.8,0.3,1,0.7
		l1.2-0.1c0.2,0,0.3,0.1,0.3,0.3c0,0.2-0.1,0.3-0.3,0.3l-1.1,0.1c-0.1,0.6-0.5,1-1.1,1c-0.5,0-1-0.3-1.1-0.8l-5.9,0.6
		c-0.2,0-0.3-0.1-0.3-0.3c0-0.2,0.1-0.3,0.3-0.3C-195.6,512-189.7,511.4-189.7,511.4z M-193.1,498.6c0.1-0.5,0.6-0.8,1.1-0.8
		c0.6,0,1.1,0.5,1.1,1l4.5,0.4c0.2,0,0.3,0.2,0.3,0.3s-0.2,0.3-0.3,0.3l-4.6-0.4c-0.2,0.4-0.6,0.7-1.1,0.7c-0.6,0-1-0.4-1.1-0.9
		l-2.5-0.2c-0.2,0-0.3-0.2-0.3-0.3c0-0.2,0.2-0.3,0.3-0.3C-195.7,498.4-193.1,498.6-193.1,498.6z M-193.6,509.5
		c-0.2,0.1-0.3,0-0.3-0.2s0-0.3,0.2-0.3l5.7-2c0.2-0.1,0.3,0,0.3,0.2s0,0.3-0.2,0.3C-187.9,507.5-193.6,509.5-193.6,509.5z
		 M-193.5,501.8c-0.2-0.1-0.2-0.2-0.2-0.4c0.1-0.2,0.2-0.2,0.4-0.2l5.4,2.3c0.2,0.1,0.2,0.2,0.2,0.4c-0.1,0.2-0.2,0.2-0.4,0.2
		L-193.5,501.8z M-194.9,500.4c-0.2-0.1-0.2-0.2-0.2-0.3c0.1-0.2,0.2-0.2,0.3-0.2l7.9,1.7c0.2,0.1,0.2,0.2,0.2,0.3
		c-0.1,0.2-0.2,0.2-0.3,0.2C-187,502.1-194.9,500.4-194.9,500.4z M-196,497.6c-0.2,0-0.3-0.1-0.3-0.3c0-0.2,0.1-0.3,0.3-0.3h10.2
		c0.2,0,0.3,0.1,0.3,0.3c0,0.2-0.1,0.3-0.3,0.3H-196z M-187.6,520.8l-5.4,2.3c-0.2,0.1-0.3,0-0.4-0.2c-0.1-0.2,0-0.3,0.2-0.4
		l5.4-2.3c0.2-0.1,0.3,0,0.4,0.2C-187.4,520.6-187.5,520.7-187.6,520.8z M-194.6,523.9l7.6-1.7c0.2-0.1,0.3,0.1,0.3,0.2
		c0.1,0.2-0.1,0.3-0.2,0.3l-7.6,1.7c-0.2,0.1-0.3-0.1-0.3-0.2C-194.8,524.1-194.8,524-194.6,523.9z M-196,527
		c-0.2,0-0.3-0.1-0.3-0.3s0.1-0.3,0.3-0.3h10.2c0.2,0,0.3,0.1,0.3,0.3s-0.1,0.3-0.3,0.3H-196z M-195.1,511.2
		c-0.2,0.1-0.3-0.1-0.3-0.2c-0.1-0.2,0.1-0.3,0.2-0.3l8.2-1.7c0.2-0.1,0.3,0.1,0.3,0.2c0.1,0.2-0.1,0.3-0.2,0.3
		C-186.8,509.5-195.1,511.2-195.1,511.2z M-194.3,515.4c-0.2,0-0.3-0.2-0.2-0.3c0.1-0.2,0.2-0.3,0.3-0.2l7.4,0.8
		c0.2,0,0.3,0.2,0.2,0.3c0,0.2-0.2,0.3-0.3,0.2C-187,516.2-194.3,515.4-194.3,515.4z M-192.1,516.8c-0.2-0.1-0.2-0.2-0.2-0.3
		c0.1-0.1,0.2-0.2,0.3-0.2l4,1.4c0.2,0.1,0.2,0.2,0.2,0.3s-0.2,0.2-0.3,0.2L-192.1,516.8z"/>
	<path class="st1" d="M-189.4,504.7c2-2.3,3.1-4.8,3.1-8c0-0.3,0.2-0.6,0.6-0.6c0.3,0,0.6,0.2,0.6,0.6c0,3.6-1.2,6.3-3.5,8.8
		c2.2,2.5,3.2,4.5,3.2,7c0,2.4-0.9,4.4-2.8,6.6c2,2.2,3.1,4.8,3.1,8.2c0,0.3-0.2,0.6-0.6,0.6c-0.3,0-0.6-0.2-0.6-0.6
		c0-3.1-0.9-5.3-2.8-7.4c-0.5,0.5-1,1-1.5,1.5c-0.2,0.2-1.8,1.6-2.3,2c-0.8,0.7-1.3,1.3-1.7,1.9c-0.6,0.7-0.8,1.4-0.8,2
		c0,0.3-0.2,0.6-0.6,0.6c-0.3,0-0.6-0.2-0.6-0.6c0-0.9,0.3-1.8,1-2.7c0.5-0.6,1-1.2,1.9-2c0.5-0.4,2.1-1.9,2.3-2
		c0.6-0.5,1-1,1.5-1.4c-0.4-0.4-0.8-0.7-1.3-1.1c-0.5-0.3-3.2-2.3-3.8-2.8c-1-0.8-1.5-1.7-1.5-2.7c0-0.7,0.3-1.4,0.8-2
		c0.5-0.6,1-1.1,2-1.9c0.2-0.2,1.1-0.9,1.2-1c0.5-0.4,0.9-0.7,1.3-1.1c0.4-0.3,0.7-0.7,1.1-1l-1.2-1.2c-0.1-0.1-1.2-1.2-1.5-1.5
		c-0.6-0.6-1-1-1.4-1.5c-1.5-1.7-2.2-3.1-2.2-4.6c0-0.3,0.2-0.6,0.6-0.6c0.3,0,0.6,0.2,0.6,0.6c0,1.2,0.6,2.4,1.9,3.9
		c0.4,0.5,0.8,0.8,1.4,1.4c0.3,0.3,1.4,1.4,1.5,1.5C-190.2,503.9-189.8,504.3-189.4,504.7z M-189.2,518.3c1.7-2,2.5-3.7,2.5-5.8
		c0-2.2-0.8-4-2.8-6.2c-0.3,0.3-0.7,0.7-1.1,1c0.4-0.3-3.7,3.1-4.4,3.9c-0.4,0.5-0.6,0.9-0.6,1.3c0,0.6,0.3,1.1,1.1,1.8
		c0.6,0.5,3.2,2.4,3.7,2.8C-190,517.6-189.6,517.9-189.2,518.3z"/>
</g>
</svg>
