<?xml version="1.0" encoding="utf-8"?>
<!-- Generator: Adobe Illustrator 28.3.0, SVG Export Plug-In . SVG Version: 6.00 Build 0)  -->
<svg width="50px" height="50px" version="1.1" id="Layer_1" xmlns="http://www.w3.org/2000/svg" xmlns:xlink="http://www.w3.org/1999/xlink" x="0px" y="0px"
	 viewBox="0 0 50 50" style="enable-background:new 0 0 50 50;" xml:space="preserve">
<style type="text/css">
	.st0{fill:#FF3333;}
	.st1{fill:#050D42;}
</style>
<g transform="rotate(45, 512, 512)">
	<path class="st0" d="M-172.6,532.4c0.4-0.6,1.1-1,1.8-0.7c0.5,0.2,1.1,0.8,1,1.4l2.5,0.7c0.3,0.1,0.4,0.3,0.3,0.5
		c-0.1,0.3-0.3,0.4-0.6,0.3l-2.5-0.7c-0.3,0.5-1,0.7-1.7,0.5c-0.5-0.2-0.9-0.8-1.1-1.3l-6.3-1.8c-0.3-0.1-0.4-0.3-0.3-0.5
		c0.1-0.3,0.3-0.4,0.6-0.3L-172.6,532.4z M-171.7,517.1c0.3-0.5,1-0.7,1.7-0.5s1.1,0.9,1,1.5l6.4,2.3c0.3,0.1,0.4,0.3,0.3,0.6
		c-0.1,0.3-0.3,0.4-0.6,0.3l-6.4-2.3c-0.3,0.5-1,0.7-1.7,0.5c-0.7-0.2-1.1-0.9-1-1.5l-1.8-0.6c-0.3-0.1-0.4-0.3-0.3-0.6
		c0.1-0.3,0.3-0.4,0.6-0.3L-171.7,517.1z M-166.1,516.3c0.3-0.5,1-0.7,1.7-0.5c0.7,0.2,0.8,0.8,0.9,1.3l1.6,0.4
		c0.3,0.1,0.4,0.3,0.3,0.6c-0.1,0.3-0.3,0.4-0.6,0.3l-1.4-0.4c-0.4,0.6-1,1-1.8,0.7c-0.5-0.2-1.1-0.9-1-1.5l-7.5-2
		c-0.3-0.1-0.4-0.3-0.3-0.6c0.1-0.3,0.3-0.4,0.6-0.3C-173.5,514.6-166.1,516.3-166.1,516.3z M-164.2,499.3c0.3-0.5,1-0.7,1.6-0.4
		s1.1,1,0.9,1.7l5.1,2.5c0.3,0.1,0.3,0.4,0.3,0.5c0,0.1-0.4,0.3-0.5,0.2l-5.2-2.5c-0.4,0.4-0.9,0.5-1.6,0.3c-0.7-0.2-1-1-0.9-1.5
		l-2.8-1.3c-0.3-0.1-0.3-0.4-0.3-0.5c0.1-0.3,0.4-0.3,0.5-0.2C-167.1,498-164.2,499.3-164.2,499.3z M-169.9,512.3
		c-0.3,0-0.4-0.1-0.3-0.4c0.1-0.3,0.1-0.4,0.4-0.3l7.9,0.1c0.3,0,0.4,0.1,0.3,0.4c-0.1,0.3-0.1,0.4-0.4,0.3L-169.9,512.3z
		 M-165.8,503.5c-0.2-0.2-0.2-0.3-0.1-0.6c0.2-0.2,0.3-0.2,0.6-0.1l4.9,4.6c0.2,0.2,0.2,0.3,0.1,0.6c-0.2,0.2-0.3,0.2-0.6,0.1
		L-165.8,503.5z M-166.8,501.2c-0.2-0.2-0.2-0.3-0.1-0.5c0.2-0.2,0.3-0.2,0.5-0.1l8.2,5c0.2,0.2,0.2,0.3,0.1,0.5
		c-0.2,0.2-0.3,0.2-0.5,0.1L-166.8,501.2z M-166.8,496.9c-0.3-0.1-0.3-0.3-0.2-0.5c0.1-0.3,0.3-0.3,0.5-0.2l11.6,4.3
		c0.3,0.1,0.3,0.3,0.2,0.5s-0.3,0.3-0.5,0.2L-166.8,496.9z M-167.7,528.7l-7.6,0.5c-0.3,0-0.4-0.1-0.4-0.5c0-0.3,0.1-0.4,0.5-0.4
		l7.6-0.5c0.3,0,0.4,0.1,0.4,0.5C-167.4,528.7-167.6,528.8-167.7,528.7z M-177.6,529.5l10,1.3c0.3,0,0.4,0.3,0.3,0.4
		c0,0.3-0.3,0.4-0.4,0.3l-10-1.3c-0.3,0-0.4-0.3-0.3-0.4C-177.9,529.7-177.9,529.5-177.6,529.5z M-180.5,532.7
		c-0.3-0.1-0.4-0.3-0.3-0.6c0.1-0.3,0.3-0.4,0.6-0.3l12.3,4.5c0.3,0.1,0.4,0.3,0.3,0.6c-0.1,0.3-0.3,0.4-0.6,0.3L-180.5,532.7z
		 M-172.6,513.7c-0.3,0-0.4-0.3-0.3-0.4c0-0.3,0.3-0.4,0.4-0.3l10.7,1.6c0.3,0,0.4,0.3,0.3,0.4c0,0.3-0.3,0.4-0.4,0.3
		C-161.7,515.3-172.6,513.7-172.6,513.7z M-173.5,519.2c-0.3-0.1-0.3-0.4-0.1-0.5c0.2-0.2,0.4-0.3,0.5-0.1l8.7,4.2
		c0.3,0.1,0.3,0.4,0.1,0.5c-0.1,0.3-0.4,0.3-0.5,0.1C-164.8,523.4-173.5,519.2-173.5,519.2z M-171.4,522c-0.2-0.2-0.2-0.4-0.1-0.5
		c0.2-0.1,0.4-0.2,0.5-0.1l4.3,3.6c0.2,0.2,0.2,0.4,0.1,0.5c0,0.1-0.4,0.2-0.5,0.1L-171.4,522z"/>
	<path class="st1" d="M-162.7,508.3c3.5-2,6-4.5,7.4-8.5c0.1-0.4,0.5-0.6,0.9-0.4c0.4,0.1,0.6,0.5,0.4,0.9c-1.6,4.4-4.3,7.1-8.2,9.3
		c1.6,4,2,6.9,0.8,10.1c-1,2.9-3,4.9-6.4,6.8c1.5,3.6,1.7,7.3,0.2,11.4c-0.1,0.4-0.5,0.6-0.9,0.4c-0.4-0.1-0.6-0.5-0.4-0.9
		c1.4-3.8,1.2-6.8-0.1-10.3c-0.7,0.3-1.7,0.8-2.4,1.1c-0.4,0.2-2.9,1.1-3.8,1.4c-1.3,0.5-2.2,1-2.9,1.6c-1,0.6-1.6,1.4-1.9,2.1
		c-0.1,0.4-0.5,0.6-0.9,0.4c-0.4-0.1-0.6-0.5-0.4-0.9c0.4-1.1,1.2-2,2.4-2.8c0.8-0.5,1.8-1.1,3.2-1.6c0.7-0.3,3.4-1.4,3.8-1.4
		c0.9-0.3,1.7-0.8,2.4-1.1c-0.3-0.7-0.7-1.2-1.1-2c-0.4-0.6-2.9-4.3-3.4-5.1c-0.9-1.4-1-2.7-0.6-3.9c0.3-0.8,1.1-1.6,1.9-2.1
		s1.7-0.9,3.3-1.4c0.4-0.2,1.8-0.6,2-0.7c0.7-0.3,1.4-0.4,2.1-0.8c0.7-0.2,1.1-0.5,1.8-0.7l-1-2.1c-0.1-0.2-1-2.1-1.1-2.4
		c-0.4-0.9-0.8-1.7-1.1-2.4c-1-2.7-1.3-4.8-0.7-6.6c0.1-0.4,0.5-0.6,0.9-0.4c0.4,0.1,0.6,0.5,0.4,0.9c-0.5,1.5-0.4,3.1,0.6,5.6
		c0.3,0.7,0.6,1.3,1.1,2.4c0.3,0.6,1.1,2.4,1.1,2.4C-163.3,507-163,507.7-162.7,508.3z M-168.5,525c2.9-1.7,4.6-3.4,5.6-6
		c1-2.7,0.8-5.3-0.6-8.9c-0.6,0.3-1.1,0.5-1.8,0.7c0.7-0.2-5.9,2.2-7.1,2.8c-0.7,0.3-1.1,0.8-1.3,1.4c-0.2,0.7-0.1,1.5,0.6,2.7
		c0.5,0.8,2.9,4.3,3.3,5.1C-169.2,523.9-168.9,524.3-168.5,525z"/>
</g>
</svg>
